<?xml version="1.0" encoding="UTF-8"?>
<svg id="Layer_2" xmlns="http://www.w3.org/2000/svg" version="1.1" viewBox="0 0 529.6 326.7">
  <!-- Generator: Adobe Illustrator 30.1.0, SVG Export Plug-In . SVG Version: 2.1.1 Build 136)  -->
  <defs>
    <style>
      .st0 {
        fill: #fff;
      }
    </style>
  </defs>
  <g id="bubliny">
    <polygon class="st0" points="441.5 47.8 427.3 47.8 88.4 47.8 0 100.8 0 221 88.4 273.9 0 326.7 441.5 326.7 529.6 273.9 529.6 257.9 529.6 168 529.6 141.6 529.6 92.7 529.6 100.8 441.5 47.8"/>
  </g>
  <g id="bubliny1">
    <polygon class="st0" points="441.5 0 427.3 0 88.4 0 0 53 0 221 88.4 273.9 0 326.7 441.5 326.7 529.6 273.9 529.6 257.9 529.6 168 529.6 141.6 529.6 83.4 529.6 53 441.5 0"/>
  </g>
</svg>