<?xml version="1.0" encoding="UTF-8"?>
<svg id="Layer_2" xmlns="http://www.w3.org/2000/svg" version="1.1" viewBox="0 0 529.6 381.7">
  <!-- Generator: Adobe Illustrator 30.1.0, SVG Export Plug-In . SVG Version: 2.1.1 Build 136)  -->
  <defs>
    <style>
      .st0 {
        fill: #fff;
      }
    </style>
  </defs>
  <g id="bubliny">
    <polygon class="st0" points="441.5 64.2 427.3 64.2 88.4 64.2 0 117.2 0 276 88.4 328.8 0 381.7 441.5 381.7 529.6 328.8 529.6 312.8 529.6 222.9 529.6 196.6 529.6 147.6 529.6 117.2 441.5 64.2"/>
  </g>
  <g id="bubliny1">
    <polygon class="st0" points="440.8 0 426.7 0 87.8 0 -.6 53 .6 276 89.1 328.8 .6 381.7 442.1 381.7 530.2 328.8 530.2 312.8 530.2 222.9 530.2 196.6 529 83.4 529 53 440.8 0"/>
  </g>
</svg>