<?xml version="1.0" encoding="UTF-8"?>
<svg id="Layer_2" xmlns="http://www.w3.org/2000/svg" version="1.1" viewBox="0 0 529.6 516.3">
  <!-- Generator: Adobe Illustrator 30.1.0, SVG Export Plug-In . SVG Version: 2.1.1 Build 136)  -->
  <defs>
    <style>
      .st0 {
        fill: #fff;
      }
    </style>
  </defs>
  <g id="bubliny">
    <polygon class="st0" points="442.1 168.8 427.9 168.8 89 168.8 0 251.9 0 410.6 88.4 463.4 0 516.3 441.5 516.3 529.6 463.4 529.6 447.5 529.6 357.6 529.6 331.2 529.6 282.2 529.6 251.9 442.1 168.8"/>
  </g>
  <g id="bubliny1">
    <polygon class="st0" points="441.4 0 427.3 0 88.4 0 0 53 .6 410.6 89.1 463.4 .6 516.3 442.1 516.3 530.2 463.4 530.2 447.5 530.2 357.6 530.2 331.2 529.6 83.4 529.6 53 441.4 0"/>
  </g>
</svg>