<?xml version="1.0" encoding="UTF-8"?>
<svg id="Layer_2" xmlns="http://www.w3.org/2000/svg" version="1.1" viewBox="0 0 1370.3 803.1">
  <!-- Generator: Adobe Illustrator 30.1.0, SVG Export Plug-In . SVG Version: 2.1.1 Build 136)  -->
  <defs>
    <style>
      .st0 {
        fill: #0c0c0c;
      }
    </style>
  </defs>
  <g id="Vrstva_1">
    <g>
      <polygon class="st0" points="611.9 316.4 576.1 244.8 617.9 244.8 629.8 256.7 629.8 304.4 617.9 316.4 611.9 316.4"/>
      <polygon class="st0" points="569.1 399.1 557.2 387.2 557.2 339.5 569.1 327.5 604.9 399.1 569.1 399.1"/>
      <polygon class="st0" points="569.1 399.1 557.2 387.2 557.2 339.5 569.1 327.5 604.9 399.1 569.1 399.1"/>
      <path class="st0" d="M628.8,339.5l-12-12h-41.7l35.8,71.6h5.9l12-11.9v-23.9h-12l12-11.9v-11.9h0ZM607,353.4c-4.5,0-8.2-3.7-8.2-8.2s3.7-8.2,8.2-8.2,8.2,3.7,8.2,8.2-3.7,8.2-8.2,8.2Z"/>
      <polygon class="st0" points="707 478 671.2 406.8 712.9 406.8 712.9 478 707 478"/>
      <polygon class="st0" points="639.6 327.5 664.2 327.5 676.6 333.7 688.9 327.5 713.5 327.5 639.6 364.5 639.6 327.5"/>
      <polygon class="st0" points="639.6 327.5 664.2 327.5 676.6 333.7 688.9 327.5 713.5 327.5 639.6 364.5 639.6 327.5"/>
      <path class="st0" d="M640,369.4v12.3l37,18.5,37-18.5v-49.3l-74,37ZM699.4,364.8c-4.5,0-8.2-3.7-8.2-8.2s3.7-8.2,8.2-8.2,8.2,3.7,8.2,8.2-3.7,8.2-8.2,8.2Z"/>
      <path class="st0" d="M570.2,244.8l-12,12v47.7l12,11.9h35.8l-35.8-71.6ZM573.1,289.5c-4.5,0-8.2-3.7-8.2-8.2s3.7-8.2,8.2-8.2,8.2,3.7,8.2,8.2-3.7,8.2-8.2,8.2Z"/>
      <path class="st0" d="M665.2,406.8h-11.9l-12,11.9v11.9l12,11.9-12,11.9v11.9l12,11.9h47.7l-35.8-71.1h0ZM657.5,433.4c-4.5,0-8.2-3.7-8.2-8.2s3.7-8.2,8.2-8.2,8.2,3.7,8.2,8.2-3.7,8.2-8.2,8.2Z"/>
      <polygon class="st0" points="1024.8 236.6 989 165 1030.8 165 1042.7 176.9 1042.7 224.7 1030.8 236.6 1024.8 236.6"/>
      <polygon class="st0" points="818.4 237.2 806.4 225.3 806.4 177.6 818.4 165.6 854.2 237.2 818.4 237.2"/>
      <polygon class="st0" points="818.4 237.2 806.4 225.3 806.4 177.6 818.4 165.6 854.2 237.2 818.4 237.2"/>
      <path class="st0" d="M878,177.6l-12-12h-41.7l35.8,71.6h5.9l12-11.9v-23.9h-12l12-11.9v-11.9ZM856.2,191.5c-4.5,0-8.2-3.7-8.2-8.2s3.7-8.2,8.2-8.2,8.2,3.7,8.2,8.2-3.7,8.2-8.2,8.2h0Z"/>
      <polygon class="st0" points="1112.4 238.2 1076.6 167.1 1118.3 167.1 1118.3 238.2 1112.4 238.2"/>
      <polygon class="st0" points="888.8 167 913.5 167 925.8 173.2 938.1 167 962.8 167 888.8 204 888.8 167"/>
      <polygon class="st0" points="888.8 167 913.5 167 925.8 173.2 938.1 167 962.8 167 888.8 204 888.8 167"/>
      <path class="st0" d="M889.2,209v12.3l37,18.5,37-18.5v-49.3l-74,37ZM948.7,204.4c-4.5,0-8.2-3.7-8.2-8.2s3.7-8.2,8.2-8.2,8.2,3.7,8.2,8.2-3.7,8.2-8.2,8.2Z"/>
      <path class="st0" d="M983.1,165l-12,12v47.7l12,11.9h35.8l-35.8-71.6ZM986,209.7c-4.5,0-8.2-3.7-8.2-8.2s3.7-8.2,8.2-8.2,8.2,3.7,8.2,8.2-3.7,8.2-8.2,8.2h0Z"/>
      <path class="st0" d="M1070.6,167.1h-11.9l-12,11.9v11.9l12,11.9-12,11.9v11.9l12,11.9h47.7l-35.8-71.1h0ZM1062.9,193.7c-4.5,0-8.2-3.7-8.2-8.2s3.7-8.2,8.2-8.2,8.2,3.7,8.2,8.2-3.7,8.2-8.2,8.2h0Z"/>
      <polygon class="st0" points="891.6 378.7 962.5 341.6 963.3 383.3 951.6 395.5 903.9 396.4 891.7 384.7 891.6 378.7"/>
      <polygon class="st0" points="697.7 244.2 709.8 256 710.4 303.7 698.6 315.8 661.9 244.7 697.7 244.2"/>
      <polygon class="st0" points="652.4 316 640.5 304.1 640.5 256.3 652.4 244.4 688.2 316 652.4 316"/>
      <path class="st0" d="M797.9,419.7l-12-12h-41.7l35.8,71.6h5.9l12-11.9v-23.9h-12l12-11.9v-11.9h0ZM776.1,433.6c-4.5,0-8.2-3.7-8.2-8.2s3.7-8.2,8.2-8.2,8.2,3.7,8.2,8.2-3.7,8.2-8.2,8.2Z"/>
      <polygon class="st0" points="953 477.7 917.2 406.5 959 406.5 959 477.7 953 477.7"/>
      <polygon class="st0" points="795.6 236.9 771 236.6 758.7 230.3 746.3 236.4 721.6 236.1 796 199.9 795.6 236.9"/>
      <polygon class="st0" points="803.9 247.9 828.6 247.9 840.9 254.1 853.2 247.9 877.9 247.9 803.9 284.9 803.9 247.9"/>
      <path class="st0" d="M804.3,367.4v12.3l37,18.5,37-18.5v-49.3l-74,37ZM863.8,362.8c-4.5,0-8.2-3.7-8.2-8.2s3.7-8.2,8.2-8.2,8.2,3.7,8.2,8.2-3.7,8.2-8.2,8.2Z"/>
      <path class="st0" d="M962.4,335.6l-12.2-11.7-47.7.9-11.7,12.2.7,35.8,70.9-37.2ZM917.7,339.4c0-4.5,3.5-8.2,8-8.3s8.2,3.5,8.3,8-3.5,8.2-8,8.3-8.2-3.5-8.3-8Z"/>
      <path class="st0" d="M911.2,406.5h-11.9l-12,11.9v11.9l12,11.9-12,11.9v11.9l12,11.9h47.7l-35.8-71.1h0ZM903.5,433.1c-4.5,0-8.2-3.7-8.2-8.2s3.7-8.2,8.2-8.2,8.2,3.7,8.2,8.2-3.7,8.2-8.2,8.2Z"/>
      <polygon class="st0" points="776.9 317.8 741.1 246.2 782.9 246.2 794.8 258.2 794.8 305.9 782.9 317.8 776.9 317.8"/>
      <polygon class="st0" points="736.5 398.2 724.5 386.3 724.5 338.6 736.5 326.6 772.2 398.2 736.5 398.2"/>
      <polygon class="st0" points="736.5 398.2 724.5 386.3 724.5 338.6 736.5 326.6 772.2 398.2 736.5 398.2"/>
      <path class="st0" d="M796.1,338.6l-12-12h-41.7l35.8,71.6h5.9l12-11.9v-23.9h-12l12-11.9v-11.9h0ZM774.3,352.5c-4.5,0-8.2-3.7-8.2-8.2s3.7-8.2,8.2-8.2,8.2,3.7,8.2,8.2-3.7,8.2-8.2,8.2Z"/>
      <polygon class="st0" points="813.4 478.9 849.2 407.7 807.5 407.7 807.5 478.9 813.4 478.9"/>
      <polygon class="st0" points="557.8 409.5 582.4 409.5 594.8 415.6 607.1 409.5 631.8 409.5 557.8 446.5 557.8 409.5"/>
      <polygon class="st0" points="557.8 409.5 582.4 409.5 594.8 415.6 607.1 409.5 631.8 409.5 557.8 446.5 557.8 409.5"/>
      <path class="st0" d="M558.2,451.4v12.3l37,18.5,37-18.5v-49.3l-74,37ZM617.6,446.8c-4.5,0-8.2-3.7-8.2-8.2s3.7-8.2,8.2-8.2,8.2,3.7,8.2,8.2-3.7,8.2-8.2,8.2Z"/>
      <path class="st0" d="M736.9,407.8l-12,12v47.7l12,11.9h35.8l-35.8-71.6ZM739.9,452.5c-4.5,0-8.2-3.7-8.2-8.2s3.7-8.2,8.2-8.2,8.2,3.7,8.2,8.2-3.7,8.2-8.2,8.2Z"/>
      <path class="st0" d="M819.4,478.9h47.7l12-11.9v-11.9l-12-11.9,12-11.9v-11.9l-12-11.9h-11.9l-35.8,71.1h0ZM854.7,426.1c0-4.5,3.7-8.2,8.2-8.2s8.2,3.7,8.2,8.2-3.7,8.2-8.2,8.2-8.2-3.7-8.2-8.2Z"/>
      <polygon class="st0" points="903.2 315.6 891.3 303.7 891.3 256 903.2 244.1 939 315.6 903.2 315.6"/>
      <polygon class="st0" points="903.2 315.6 891.3 303.7 891.3 256 903.2 244.1 939 315.6 903.2 315.6"/>
      <path class="st0" d="M962.9,256l-12-12h-41.7l35.8,71.6h5.9l12-11.9v-23.9h-12l12-11.9v-11.9h0ZM941,269.9c-4.5,0-8.2-3.7-8.2-8.2s3.7-8.2,8.2-8.2,8.2,3.7,8.2,8.2-3.7,8.2-8.2,8.2Z"/>
      <polygon class="st0" points="1035 316.8 999.2 245.6 1041 245.6 1041 316.8 1035 316.8"/>
      <polygon class="st0" points="546.5 250.4 521.9 250.4 509.6 256.5 497.2 250.4 472.6 250.4 546.5 287.4 546.5 250.4"/>
      <polygon class="st0" points="546.5 250.4 521.9 250.4 509.6 256.5 497.2 250.4 472.6 250.4 546.5 287.4 546.5 250.4"/>
      <path class="st0" d="M472.2,255.3v49.3l37,18.5,37-18.5v-12.3l-74-37ZM478.5,279.5c0-4.5,3.7-8.2,8.2-8.2s8.2,3.7,8.2,8.2-3.7,8.2-8.2,8.2-8.2-3.7-8.2-8.2Z"/>
      <path class="st0" d="M651.1,166.6l-12,12v47.7l12,11.9h35.8l-35.8-71.6ZM654.1,211.3c-4.5,0-8.2-3.7-8.2-8.2s3.7-8.2,8.2-8.2,8.2,3.7,8.2,8.2-3.7,8.2-8.2,8.2Z"/>
      <path class="st0" d="M993.2,245.6h-11.9l-12,11.9v11.9l12,11.9-12,11.9v11.9l12,11.9h47.7l-35.8-71.1h0ZM985.5,272.2c-4.5,0-8.2-3.7-8.2-8.2s3.7-8.2,8.2-8.2,8.2,3.7,8.2,8.2-3.7,8.2-8.2,8.2Z"/>
      <polygon class="st0" points="944.7 560.7 908.9 489.1 950.7 489.1 962.6 501.1 962.6 548.8 950.7 560.7 944.7 560.7"/>
      <polygon class="st0" points="970 337.9 981.8 325.9 1029.5 325.6 1041.6 337.5 970.2 373.7 970 337.9"/>
      <polygon class="st0" points="970 337.9 981.8 325.9 1029.5 325.6 1041.6 337.5 970.2 373.7 970 337.9"/>
      <path class="st0" d="M1030,397.2l11.9-12-.3-41.7-71.4,36.2v5.9s12,11.9,12,11.9h23.9c0-.1,0-12.1,0-12.1l12,11.9h11.9c0,0,0,0,0,0ZM1015.9,375.5c0-4.5,3.6-8.2,8.1-8.2,4.5,0,8.2,3.6,8.2,8.1s-3.6,8.2-8.1,8.2-8.2-3.6-8.2-8.1h0Z"/>
      <polygon class="st0" points="1038 560.2 1002.2 489 1043.9 489 1043.9 560.2 1038 560.2"/>
      <polygon class="st0" points="807.2 489 831.8 489 844.2 495.2 856.5 489 881.2 489 807.2 526 807.2 489"/>
      <polygon class="st0" points="807.2 489 831.8 489 844.2 495.2 856.5 489 881.2 489 807.2 526 807.2 489"/>
      <path class="st0" d="M807.6,531v12.3l37,18.5,37-18.5v-49.3l-74,37ZM867.1,526.4c-4.5,0-8.2-3.7-8.2-8.2s3.7-8.2,8.2-8.2,8.2,3.7,8.2,8.2-3.7,8.2-8.2,8.2Z"/>
      <path class="st0" d="M902.9,489.1l-12,12v47.7l12,11.9h35.8l-35.8-71.6h0ZM905.9,533.9c-4.5,0-8.2-3.7-8.2-8.2s3.7-8.2,8.2-8.2,8.2,3.7,8.2,8.2-3.7,8.2-8.2,8.2Z"/>
      <path class="st0" d="M996.2,489h-11.9l-12,11.9v11.9l12,11.8-12,11.9v11.8l12,11.8h47.7l-35.8-71.1h0ZM988.5,515.6c-4.5,0-8.2-3.7-8.2-8.2s3.7-8.2,8.2-8.2,8.2,3.7,8.2,8.2-3.7,8.2-8.2,8.2Z"/>
      <polygon class="st0" points="527.2 400.1 491.4 328.5 533.1 328.5 545 340.4 545 388.1 533.1 400.1 527.2 400.1"/>
      <polygon class="st0" points="1110.2 400 1122.1 388.1 1122.1 340.4 1110.2 328.4 1074.4 400 1110.2 400"/>
      <polygon class="st0" points="1110.2 400 1122.1 388.1 1122.1 340.4 1110.2 328.4 1074.4 400 1110.2 400"/>
      <path class="st0" d="M1050.5,352.3l12,11.9h-12v23.9l12,11.9h5.9l35.8-71.6h-41.7l-12,12v11.9h0ZM1064.2,346.1c0-4.5,3.7-8.2,8.2-8.2s8.2,3.7,8.2,8.2-3.7,8.2-8.2,8.2-8.2-3.7-8.2-8.2Z"/>
      <polygon class="st0" points="977 475.2 1012.8 404.1 971 404.1 971 475.2 977 475.2"/>
      <path class="st0" d="M1051,406.7v49.3l37,18.5,37-18.5v-12.3l-74-37ZM1057.3,430.9c0-4.5,3.7-8.2,8.2-8.2s8.2,3.7,8.2,8.2-3.7,8.2-8.2,8.2-8.2-3.7-8.2-8.2Z"/>
      <path class="st0" d="M485.4,328.5l-12,12v47.7l12,11.9h35.8l-35.8-71.6h0ZM488.4,373.2c-4.5,0-8.2-3.7-8.2-8.2s3.7-8.2,8.2-8.2,8.2,3.7,8.2,8.2-3.7,8.2-8.2,8.2Z"/>
      <path class="st0" d="M983,475.2h47.7l12-11.9v-11.9l-12-11.9,12-11.9v-11.9l-12-11.9h-11.9l-35.8,71.1h0ZM1018.3,422.5c0-4.5,3.7-8.2,8.2-8.2s8.2,3.7,8.2,8.2-3.7,8.2-8.2,8.2-8.2-3.7-8.2-8.2h0Z"/>
      <path class="st0" d="M693.8,238.4l11.8-12.1-.7-47.7-12.1-11.7-35.8.5,36.8,71.1h0ZM690.2,193.7c4.5,0,8.2,3.5,8.3,8.1s-3.5,8.2-8.1,8.3-8.2-3.5-8.3-8.1,3.5-8.2,8.1-8.3Z"/>
      <path class="st0" d="M1060,246.7l-12,12v47.7l12,11.9h35.8l-35.8-71.6h0ZM1063,291.5c-4.5,0-8.2-3.7-8.2-8.2s3.7-8.2,8.2-8.2,8.2,3.7,8.2,8.2-3.7,8.2-8.2,8.2Z"/>
      <path class="st0" d="M1103.4,318.3l11.8-12.1-.7-47.7-12.1-11.7-35.8.5,36.8,71.1h0ZM1099.8,273.6c4.5,0,8.2,3.5,8.3,8.1,0,4.5-3.5,8.2-8.1,8.3s-8.2-3.5-8.3-8.1c0-4.5,3.5-8.2,8.1-8.3Z"/>
      <polygon class="st0" points="950 159.9 914.2 88.8 955.9 88.8 955.9 159.9 950 159.9"/>
      <path class="st0" d="M908.2,88.8h-11.9l-12,11.9v11.8l12,11.8-12,11.9v11.9l12,11.9h47.7l-35.8-71.2h0ZM900.5,115.4c-4.5,0-8.2-3.7-8.2-8.2s3.7-8.2,8.2-8.2,8.2,3.7,8.2,8.2-3.7,8.2-8.2,8.2Z"/>
      <path class="st0" d="M1040.9,101.6l-12-12h-41.7l35.8,71.6h5.9l12-11.9v-23.9h-12l12-11.9v-11.9ZM1019,115.5c-4.5,0-8.2-3.7-8.2-8.2s3.7-8.2,8.2-8.2,8.2,3.7,8.2,8.2-3.7,8.2-8.2,8.2h0Z"/>
      <polygon class="st0" points="1196 159.6 1160.2 88.5 1201.9 88.5 1201.9 159.6 1196 159.6"/>
      <path class="st0" d="M1154.2,88.5h-11.9l-12,11.9v11.8l12,11.8-12,11.9v11.9l12,11.9h47.7l-35.8-71.2h0ZM1146.5,115.1c-4.5,0-8.2-3.7-8.2-8.2s3.7-8.2,8.2-8.2,8.2,3.7,8.2,8.2-3.7,8.2-8.2,8.2Z"/>
      <polygon class="st0" points="1056.4 160.8 1092.2 89.7 1050.4 89.7 1050.4 160.8 1056.4 160.8"/>
      <polygon class="st0" points="800.7 91.4 825.4 91.4 837.7 97.6 850 91.4 874.7 91.4 800.7 128.4 800.7 91.4"/>
      <polygon class="st0" points="800.7 91.4 825.4 91.4 837.7 97.6 850 91.4 874.7 91.4 800.7 128.4 800.7 91.4"/>
      <path class="st0" d="M801.1,133.4v12.3l37,18.5,37-18.5v-49.3l-74,37ZM860.6,128.8c-4.5,0-8.2-3.7-8.2-8.2s3.7-8.2,8.2-8.2,8.2,3.7,8.2,8.2-3.7,8.2-8.2,8.2Z"/>
      <path class="st0" d="M979.9,89.8l-12,12v47.7l12,11.9h35.8l-35.8-71.6ZM982.8,134.5c-4.5,0-8.2-3.7-8.2-8.2s3.7-8.2,8.2-8.2,8.2,3.7,8.2,8.2-3.7,8.2-8.2,8.2Z"/>
      <path class="st0" d="M1062.4,160.8h47.7l12-11.9v-11.9l-12-11.9,12-11.8v-11.8l-12-11.9h-11.9l-35.8,71.1h0ZM1097.7,108.1c0-4.5,3.7-8.2,8.2-8.2s8.2,3.7,8.2,8.2-3.7,8.2-8.2,8.2-8.2-3.7-8.2-8.2Z"/>
      <polygon class="st0" points="1219.9 157.2 1255.7 86 1214 86 1214 157.2 1219.9 157.2"/>
      <path class="st0" d="M1225.9,157.2h47.7l12-11.9v-11.9l-12-11.9,12-11.8v-11.8l-12-11.9h-11.9l-35.8,71.1h0ZM1261.2,104.4c0-4.5,3.7-8.2,8.2-8.2s8.2,3.7,8.2,8.2-3.7,8.2-8.2,8.2-8.2-3.7-8.2-8.2Z"/>
      <polygon class="st0" points="1137.6 317.2 1125.7 305.3 1125.7 257.6 1137.6 245.6 1173.4 317.2 1137.6 317.2"/>
      <polygon class="st0" points="1137.6 317.2 1125.7 305.3 1125.7 257.6 1137.6 245.6 1173.4 317.2 1137.6 317.2"/>
      <path class="st0" d="M1197.3,257.6l-12-12h-41.7l35.8,71.6h5.9l12-11.9v-23.9h-12l12-11.9v-11.9h0ZM1175.4,271.5c-4.5,0-8.2-3.7-8.2-8.2s3.7-8.2,8.2-8.2,8.2,3.7,8.2,8.2-3.7,8.2-8.2,8.2Z"/>
      <polygon class="st0" points="1273.4 317 1237.7 245.8 1279.4 245.8 1279.4 317 1273.4 317"/>
      <path class="st0" d="M1231.7,245.8h-11.9l-12,11.9v11.9l12,11.9-12,11.9v11.9l12,11.9h47.7l-35.8-71.1h0ZM1224,272.4c-4.5,0-8.2-3.7-8.2-8.2s3.7-8.2,8.2-8.2,8.2,3.7,8.2,8.2-3.7,8.2-8.2,8.2Z"/>
      <path class="st0" d="M1298.4,246.9l-12,12v47.7l12,11.9h35.8l-35.8-71.6ZM1301.4,291.7c-4.5,0-8.2-3.7-8.2-8.2s3.7-8.2,8.2-8.2,8.2,3.7,8.2,8.2-3.7,8.2-8.2,8.2Z"/>
      <path class="st0" d="M1341.8,318.5l11.8-12.1-.7-47.7-12.1-11.7-35.8.5,36.8,71.1h0ZM1338.2,273.8c4.5,0,8.2,3.5,8.3,8.1,0,4.5-3.5,8.2-8.1,8.3s-8.2-3.5-8.3-8.1c0-4.5,3.5-8.2,8.1-8.3Z"/>
      <polygon class="st0" points="1027.4 637.3 991.6 565.7 1033.3 565.7 1045.3 577.6 1045.3 625.3 1033.3 637.3 1027.4 637.3"/>
      <polygon class="st0" points="984.5 720 972.6 708.1 972.6 660.4 984.5 648.4 1020.3 720 984.5 720"/>
      <polygon class="st0" points="984.5 720 972.6 708.1 972.6 660.4 984.5 648.4 1020.3 720 984.5 720"/>
      <path class="st0" d="M1044.2,660.4l-12-12h-41.7l35.8,71.6h5.9l12-11.9v-23.9h-12l12-11.9v-11.9ZM1022.4,674.3c-4.5,0-8.2-3.7-8.2-8.2s3.7-8.2,8.2-8.2,8.2,3.7,8.2,8.2-3.7,8.2-8.2,8.2h0Z"/>
      <polygon class="st0" points="1122.4 798.9 1086.6 727.7 1128.4 727.7 1128.4 798.9 1122.4 798.9"/>
      <polygon class="st0" points="1055 648.4 1079.6 648.4 1092 654.6 1104.3 648.4 1129 648.4 1055 685.4 1055 648.4"/>
      <polygon class="st0" points="1055 648.4 1079.6 648.4 1092 654.6 1104.3 648.4 1129 648.4 1055 685.4 1055 648.4"/>
      <path class="st0" d="M1055.4,690.3v12.3l37,18.5,37-18.5v-49.3l-74,37ZM1114.9,685.8c-4.5,0-8.2-3.7-8.2-8.2s3.7-8.2,8.2-8.2,8.2,3.7,8.2,8.2-3.7,8.2-8.2,8.2Z"/>
      <path class="st0" d="M985.6,565.7l-12,12v47.7l12,11.9h35.8l-35.8-71.6ZM988.6,610.4c-4.5,0-8.2-3.7-8.2-8.2s3.7-8.2,8.2-8.2,8.2,3.7,8.2,8.2-3.7,8.2-8.2,8.2Z"/>
      <path class="st0" d="M1080.7,727.7h-11.9l-12,11.9v11.8l12,11.8-12,11.9v11.8l12,11.8h47.7l-35.8-71.2h0ZM1072.9,754.3c-4.5,0-8.2-3.7-8.2-8.2s3.7-8.2,8.2-8.2,8.2,3.7,8.2,8.2-3.7,8.2-8.2,8.2Z"/>
      <polygon class="st0" points="1113.2 565.2 1125.2 576.9 1125.8 624.6 1114.1 636.7 1077.4 565.6 1113.2 565.2"/>
      <polygon class="st0" points="1067.8 636.9 1055.9 625 1055.9 577.3 1067.8 565.3 1103.7 636.9 1067.8 636.9"/>
      <polygon class="st0" points="973.2 730.4 997.8 730.4 1010.2 736.5 1022.5 730.4 1047.2 730.4 973.2 767.4 973.2 730.4"/>
      <polygon class="st0" points="973.2 730.4 997.8 730.4 1010.2 736.5 1022.5 730.4 1047.2 730.4 973.2 767.4 973.2 730.4"/>
      <path class="st0" d="M973.6,772.3v12.3l37,18.5,37-18.5v-49.3l-74,37ZM1033.1,767.7c-4.5,0-8.2-3.7-8.2-8.2s3.7-8.2,8.2-8.2,8.2,3.7,8.2,8.2-3.7,8.2-8.2,8.2Z"/>
      <path class="st0" d="M1066.6,487.5l-12,12v47.7l12,11.9h35.8l-35.8-71.6h0ZM1069.5,532.2c-4.5,0-8.2-3.7-8.2-8.2s3.7-8.2,8.2-8.2,8.2,3.7,8.2,8.2-3.7,8.2-8.2,8.2Z"/>
      <path class="st0" d="M1109.2,559.3l11.8-12.1-.7-47.7-12.1-11.7-35.8.5,36.8,71.1h0ZM1105.6,514.6c4.5,0,8.2,3.5,8.3,8.1,0,4.5-3.5,8.2-8.1,8.3s-8.2-3.5-8.3-8.1c0-4.5,3.5-8.2,8.1-8.3Z"/>
      <polygon class="st0" points="539 642.3 503.2 570.8 545 570.8 556.9 582.7 556.9 630.4 545 642.3 539 642.3"/>
      <polygon class="st0" points="626.5 644 590.7 572.8 632.5 572.8 632.5 644 626.5 644"/>
      <polygon class="st0" points="403 572.8 427.6 572.8 439.9 579 452.3 572.8 476.9 572.8 403 609.8 403 572.8"/>
      <polygon class="st0" points="403 572.8 427.6 572.8 439.9 579 452.3 572.8 476.9 572.8 403 609.8 403 572.8"/>
      <path class="st0" d="M403.4,614.7v12.3l37,18.5,37-18.5v-49.3l-74,37h0ZM462.8,610.2c-4.5,0-8.2-3.7-8.2-8.2s3.7-8.2,8.2-8.2,8.2,3.7,8.2,8.2-3.7,8.2-8.2,8.2Z"/>
      <path class="st0" d="M497.2,570.8l-12,12v47.7l12,11.9h35.8l-35.8-71.6h0ZM500.2,615.5c-4.5,0-8.2-3.7-8.2-8.2s3.7-8.2,8.2-8.2,8.2,3.7,8.2,8.2-3.7,8.2-8.2,8.2Z"/>
      <path class="st0" d="M584.7,572.8h-11.9l-12,11.9v11.8l12,11.8-12,11.9v11.8l12,11.8h47.7l-35.8-71.2h0ZM577,599.4c-4.5,0-8.2-3.7-8.2-8.2s3.7-8.2,8.2-8.2,8.2,3.7,8.2,8.2-3.7,8.2-8.2,8.2Z"/>
      <polygon class="st0" points="163.8 543.9 234.7 506.7 235.5 548.5 223.8 560.6 176.1 561.5 163.9 549.8 163.8 543.9"/>
      <polygon class="st0" points="225.2 642.8 189.4 571.7 231.1 571.7 231.1 642.8 225.2 642.8"/>
      <path class="st0" d="M234.6,500.8l-12.2-11.7-47.7.9-11.7,12.2.7,35.8,70.9-37.2h0ZM189.9,504.6c0-4.5,3.5-8.2,8-8.3s8.2,3.5,8.3,8-3.5,8.2-8,8.3c-4.5,0-8.2-3.5-8.3-8h0Z"/>
      <path class="st0" d="M183.4,571.7h-11.9l-12,11.9v11.8l12,11.8-12,11.9v11.8l12,11.8h47.7l-35.8-71.2h0ZM175.7,598.2c-4.5,0-8.2-3.7-8.2-8.2s3.7-8.2,8.2-8.2,8.2,3.7,8.2,8.2-3.7,8.2-8.2,8.2h0Z"/>
      <polygon class="st0" points="417.3 721.4 405.4 709.5 405.4 661.8 417.3 649.8 453.1 721.4 417.3 721.4"/>
      <polygon class="st0" points="417.3 721.4 405.4 709.5 405.4 661.8 417.3 649.8 453.1 721.4 417.3 721.4"/>
      <path class="st0" d="M477,661.8l-12-12h-41.7l35.8,71.6h5.9l12-11.9v-23.9h-12l12-11.9v-11.9ZM455.2,675.7c-4.5,0-8.2-3.7-8.2-8.2s3.7-8.2,8.2-8.2,8.2,3.7,8.2,8.2-3.7,8.2-8.2,8.2Z"/>
      <polygon class="st0" points="549.2 722.5 513.4 651.3 555.1 651.3 555.1 722.5 549.2 722.5"/>
      <path class="st0" d="M507.4,651.3h-11.9l-12,11.9v11.8l12,11.8-12,11.9v11.8l12,11.8h47.7l-35.8-71.2h0ZM499.7,678c-4.5,0-8.2-3.7-8.2-8.2s3.7-8.2,8.2-8.2,8.2,3.7,8.2,8.2-3.7,8.2-8.2,8.2Z"/>
      <polygon class="st0" points="216.9 725.8 181.1 654.3 222.8 654.3 234.8 666.2 234.8 713.9 222.8 725.8 216.9 725.8"/>
      <polygon class="st0" points="242.1 503 254 491 301.7 490.7 313.7 502.6 242.4 538.8 242.1 503"/>
      <polygon class="st0" points="242.1 503 254 491 301.7 490.7 313.7 502.6 242.4 538.8 242.1 503"/>
      <path class="st0" d="M302.2,562.3l11.9-12-.3-41.7-71.4,36.2v5.9s12,11.9,12,11.9l23.9-.2v-12c0,0,11.9,11.9,11.9,11.9h11.9c0,0,0,0,0,0ZM288.1,540.6c0-4.5,3.6-8.2,8.1-8.2,4.5,0,8.2,3.6,8.2,8.1s-3.6,8.2-8.1,8.2c-4.5,0-8.2-3.6-8.2-8.1Z"/>
      <polygon class="st0" points="310.1 725.3 274.3 654.2 316.1 654.2 316.1 725.3 310.1 725.3"/>
      <path class="st0" d="M175.1,654.3l-12,12v47.7l12,11.9h35.8l-35.8-71.6h0ZM178.1,699c-4.5,0-8.2-3.7-8.2-8.2s3.7-8.2,8.2-8.2,8.2,3.7,8.2,8.2-3.7,8.2-8.2,8.2Z"/>
      <path class="st0" d="M268.4,654.2h-11.9l-12,11.9v11.8l12,11.8-12,11.9v11.8l12,11.8h47.7l-35.8-71.2h0ZM260.7,680.8c-4.5,0-8.2-3.7-8.2-8.2s3.7-8.2,8.2-8.2,8.2,3.7,8.2,8.2-3.7,8.2-8.2,8.2Z"/>
      <polygon class="st0" points="382.4 565.1 394.3 553.2 394.3 505.5 382.4 493.5 346.6 565.1 382.4 565.1"/>
      <polygon class="st0" points="382.4 565.1 394.3 553.2 394.3 505.5 382.4 493.5 346.6 565.1 382.4 565.1"/>
      <path class="st0" d="M322.7,517.4l12,11.9h-12v23.9l12,11.9h5.9l35.8-71.6h-41.7l-12,12v11.9h0ZM336.4,511.2c0-4.5,3.7-8.2,8.2-8.2s8.2,3.7,8.2,8.2-3.7,8.2-8.2,8.2-8.2-3.7-8.2-8.2h0Z"/>
      <polygon class="st0" points="249.2 640.3 285 569.2 243.2 569.2 243.2 640.3 249.2 640.3"/>
      <path class="st0" d="M323.1,571.8v49.3l37,18.5,37-18.5v-12.3l-74-37h0ZM329.5,596.1c0-4.5,3.7-8.2,8.2-8.2s8.2,3.7,8.2,8.2-3.7,8.2-8.2,8.2-8.2-3.7-8.2-8.2Z"/>
      <path class="st0" d="M255.1,640.3h47.7l12-11.8v-11.8l-12-11.9,12-11.8v-11.8l-12-11.9h-11.9l-35.8,71.2h0ZM290.5,587.6c0-4.5,3.7-8.2,8.2-8.2s8.2,3.7,8.2,8.2-3.7,8.2-8.2,8.2-8.2-3.7-8.2-8.2Z"/>
      <path class="st0" d="M574.2,652.5l-12,12v47.7l12,11.9h35.8l-35.8-71.6ZM577.1,697.2c-4.5,0-8.2-3.7-8.2-8.2s3.7-8.2,8.2-8.2,8.2,3.7,8.2,8.2-3.7,8.2-8.2,8.2Z"/>
      <path class="st0" d="M617.5,724l11.8-12.1-.7-47.7-12.1-11.7-35.8.5,36.8,71.1h0ZM613.9,679.3c4.5,0,8.2,3.5,8.3,8.1s-3.5,8.2-8.1,8.3-8.2-3.5-8.3-8.1,3.5-8.2,8.1-8.3Z"/>
      <polygon class="st0" points="464.1 565.7 428.3 494.5 470 494.5 470 565.7 464.1 565.7"/>
      <path class="st0" d="M422.3,494.5h-11.9l-12,11.9v11.8l12,11.8-12,11.9v11.8l12,11.8h47.7l-35.8-71.1h0ZM414.6,521.1c-4.5,0-8.2-3.7-8.2-8.2s3.7-8.2,8.2-8.2,8.2,3.7,8.2,8.2-3.7,8.2-8.2,8.2Z"/>
      <path class="st0" d="M555,507.4l-12-12h-41.7l35.8,71.6h5.9l12-11.9v-23.9h-12l12-11.9v-11.9h0ZM533.2,521.3c-4.5,0-8.2-3.7-8.2-8.2s3.7-8.2,8.2-8.2,8.2,3.7,8.2,8.2-3.7,8.2-8.2,8.2Z"/>
      <polygon class="st0" points="710.1 565.4 674.3 494.2 716.1 494.2 716.1 565.4 710.1 565.4"/>
      <path class="st0" d="M668.3,494.2h-11.9l-12,11.9v11.9l12,11.8-12,11.9v11.8l12,11.8h47.7l-35.8-71.1h0ZM660.7,520.8c-4.5,0-8.2-3.7-8.2-8.2s3.7-8.2,8.2-8.2,8.2,3.7,8.2,8.2-3.7,8.2-8.2,8.2Z"/>
      <polygon class="st0" points="570.5 566.6 606.3 495.4 564.6 495.4 564.6 566.6 570.5 566.6"/>
      <path class="st0" d="M494,495.5l-12,12v47.7l12,11.9h35.8l-35.8-71.6h0ZM497,540.2c-4.5,0-8.2-3.7-8.2-8.2s3.7-8.2,8.2-8.2,8.2,3.7,8.2,8.2-3.7,8.2-8.2,8.2Z"/>
      <path class="st0" d="M576.5,566.6h47.7l12-11.8v-11.8l-12-11.9,12-11.8v-11.9l-12-11.9h-11.9l-35.8,71.1h0ZM611.8,513.8c0-4.5,3.7-8.2,8.2-8.2s8.2,3.7,8.2,8.2-3.7,8.2-8.2,8.2-8.2-3.7-8.2-8.2Z"/>
      <polygon class="st0" points="734.1 562.9 769.9 491.8 728.1 491.8 728.1 562.9 734.1 562.9"/>
      <path class="st0" d="M740.1,562.9h47.7l12-11.8v-11.8l-12-11.9,12-11.8v-11.9l-12-11.9h-11.9l-35.8,71.1h0ZM775.4,510.2c0-4.5,3.7-8.2,8.2-8.2s8.2,3.7,8.2,8.2-3.7,8.2-8.2,8.2-8.2-3.7-8.2-8.2Z"/>
      <polygon class="st0" points="646.4 724.3 634.5 712.4 634.5 664.6 646.4 652.7 682.2 724.3 646.4 724.3"/>
      <polygon class="st0" points="646.4 724.3 634.5 712.4 634.5 664.6 646.4 652.7 682.2 724.3 646.4 724.3"/>
      <path class="st0" d="M706.1,664.6l-12-12h-41.7l35.8,71.6h5.9l12-11.9v-23.9h-12l12-11.9v-11.9ZM684.3,678.5c-4.5,0-8.2-3.7-8.2-8.2s3.7-8.2,8.2-8.2,8.2,3.7,8.2,8.2-3.7,8.2-8.2,8.2Z"/>
      <polygon class="st0" points="778.3 725.4 742.5 654.2 784.2 654.2 784.2 725.4 778.3 725.4"/>
      <path class="st0" d="M736.5,654.2h-11.9l-12,11.9v11.8l12,11.8-12,11.9v11.8l12,11.8h47.7l-35.8-71.2h0ZM728.8,680.8c-4.5,0-8.2-3.7-8.2-8.2s3.7-8.2,8.2-8.2,8.2,3.7,8.2,8.2-3.7,8.2-8.2,8.2Z"/>
      <path class="st0" d="M651.4,568.5l-12,12v47.7l12,11.9h35.8l-35.8-71.6ZM654.3,613.3c-4.5,0-8.2-3.7-8.2-8.2s3.7-8.2,8.2-8.2,8.2,3.7,8.2,8.2-3.7,8.2-8.2,8.2Z"/>
      <path class="st0" d="M338.8,652.6l-12,12v47.7l12,11.9h35.8l-35.8-71.6h0ZM341.7,697.4c-4.5,0-8.2-3.7-8.2-8.2s3.7-8.2,8.2-8.2,8.2,3.7,8.2,8.2-3.7,8.2-8.2,8.2Z"/>
      <path class="st0" d="M381.4,724.5l11.8-12.1-.7-47.7-12.1-11.7-35.8.5,36.9,71.1h0ZM377.8,679.8c4.5,0,8.2,3.5,8.3,8.1,0,4.5-3.5,8.2-8.1,8.3-4.5,0-8.2-3.5-8.3-8.1,0-4.5,3.5-8.2,8.1-8.3Z"/>
      <polygon class="st0" points="556.3 54.8 627.2 17.7 628 59.4 616.2 71.6 568.5 72.5 556.4 60.8 556.3 54.8"/>
      <path class="st0" d="M462.6,95.8l-12-12h-41.7l35.8,71.6h5.9l12-11.9v-23.9h-12l12-11.9v-11.9ZM440.7,109.7c-4.5,0-8.2-3.7-8.2-8.2s3.7-8.2,8.2-8.2,8.2,3.7,8.2,8.2-3.7,8.2-8.2,8.2Z"/>
      <polygon class="st0" points="617.7 153.8 581.9 82.6 623.6 82.6 623.6 153.8 617.7 153.8"/>
      <path class="st0" d="M469,43.5v12.3l37,18.5,37-18.5V6.5l-74,37h0ZM528.5,38.9c-4.5,0-8.2-3.7-8.2-8.2s3.7-8.2,8.2-8.2,8.2,3.7,8.2,8.2-3.7,8.2-8.2,8.2Z"/>
      <path class="st0" d="M627,11.7l-12.2-11.7-47.7.9-11.7,12.2.7,35.8s70.9-37.2,70.9-37.2ZM582.4,15.5c0-4.5,3.5-8.2,8-8.3s8.2,3.5,8.3,8c0,4.5-3.5,8.3-8,8.3s-8.2-3.5-8.3-8Z"/>
      <path class="st0" d="M575.9,82.6h-11.9l-12,11.9v11.8l12,11.8-12,11.9v11.9l12,11.9h47.7l-35.8-71.2h0ZM568.2,109.2c-4.5,0-8.2-3.7-8.2-8.2s3.7-8.2,8.2-8.2,8.2,3.7,8.2,8.2-3.7,8.2-8.2,8.2Z"/>
      <polygon class="st0" points="401.1 74.3 389.2 62.4 389.2 14.7 401.1 2.7 436.9 74.3 401.1 74.3"/>
      <polygon class="st0" points="401.1 74.3 389.2 62.4 389.2 14.7 401.1 2.7 436.9 74.3 401.1 74.3"/>
      <path class="st0" d="M460.8,14.7l-12-12h-41.7l35.8,71.6h5.9l12-11.9v-23.9h-12l12-11.9v-11.9ZM438.9,28.6c-4.5,0-8.2-3.7-8.2-8.2s3.7-8.2,8.2-8.2,8.2,3.7,8.2,8.2-3.7,8.2-8.2,8.2Z"/>
      <polygon class="st0" points="478.1 154.9 513.9 83.8 472.1 83.8 472.1 154.9 478.1 154.9"/>
      <path class="st0" d="M401.6,83.9l-12,12v47.7l12,11.9h35.8s-35.8-71.6-35.8-71.6ZM404.5,128.6c-4.5,0-8.2-3.7-8.2-8.2s3.7-8.2,8.2-8.2,8.2,3.7,8.2,8.2-3.7,8.2-8.2,8.2Z"/>
      <path class="st0" d="M484.1,154.9h47.7l12-11.9v-11.9l-12-11.9,12-11.8v-11.8l-12-11.9h-11.9l-35.8,71.2h0ZM519.4,102.2c0-4.5,3.7-8.2,8.2-8.2s8.2,3.7,8.2,8.2-3.7,8.2-8.2,8.2-8.2-3.7-8.2-8.2Z"/>
      <polygon class="st0" points="609.3 236.8 573.5 165.2 615.3 165.2 627.2 177.2 627.2 224.9 615.3 236.8 609.3 236.8"/>
      <polygon class="st0" points="471.9 165.1 496.5 165.1 508.9 171.3 521.2 165.1 545.8 165.1 471.9 202.1 471.9 165.1"/>
      <polygon class="st0" points="471.9 165.1 496.5 165.1 508.9 171.3 521.2 165.1 545.8 165.1 471.9 202.1 471.9 165.1"/>
      <path class="st0" d="M472.3,207v12.3l37,18.5,37-18.5v-49.3l-74,37ZM531.7,202.5c-4.5,0-8.2-3.7-8.2-8.2s3.7-8.2,8.2-8.2,8.2,3.7,8.2,8.2-3.7,8.2-8.2,8.2Z"/>
      <path class="st0" d="M567.6,165.2l-12,12v47.7l12,11.9h35.8l-35.8-71.6ZM570.5,210c-4.5,0-8.2-3.7-8.2-8.2s3.7-8.2,8.2-8.2,8.2,3.7,8.2,8.2-3.7,8.2-8.2,8.2h0Z"/>
      <polygon class="st0" points="398.7 239 434.5 167.9 392.8 167.9 392.8 239 398.7 239"/>
      <path class="st0" d="M404.7,239h47.7l12-11.9v-11.9l-12-11.9,12-11.9v-11.9l-12-11.9h-11.9l-35.8,71.2h0ZM440,186.3c0-4.5,3.7-8.2,8.2-8.2s8.2,3.7,8.2,8.2-3.7,8.2-8.2,8.2-8.2-3.7-8.2-8.2h0Z"/>
      <polygon class="st0" points="1350.1 557.6 1314.3 486 1356.1 486 1368 498 1368 545.7 1356.1 557.6 1350.1 557.6"/>
      <polygon class="st0" points="1307.3 640.4 1295.4 628.4 1295.4 580.7 1307.3 568.8 1343.1 640.4 1307.3 640.4"/>
      <polygon class="st0" points="1307.3 640.4 1295.4 628.4 1295.4 580.7 1307.3 568.8 1343.1 640.4 1307.3 640.4"/>
      <path class="st0" d="M1367,580.7l-12-12h-41.7l35.8,71.6h5.9l12-11.9v-23.9h-12l12-11.9v-11.9ZM1345.2,594.6c-4.5,0-8.2-3.7-8.2-8.2s3.7-8.2,8.2-8.2,8.2,3.7,8.2,8.2-3.7,8.2-8.2,8.2Z"/>
      <path class="st0" d="M1308.4,486l-12,12v47.7l12,11.9h35.8l-35.8-71.6h0ZM1311.3,530.8c-4.5,0-8.2-3.7-8.2-8.2s3.7-8.2,8.2-8.2,8.2,3.7,8.2,8.2-3.7,8.2-8.2,8.2Z"/>
      <polygon class="st0" points="1296 650.7 1320.6 650.7 1332.9 656.9 1345.3 650.7 1369.9 650.7 1296 687.7 1296 650.7"/>
      <polygon class="st0" points="1296 650.7 1320.6 650.7 1332.9 656.9 1345.3 650.7 1369.9 650.7 1296 687.7 1296 650.7"/>
      <path class="st0" d="M1296.4,692.7v12.3l37,18.5,37-18.5v-49.3l-74,37ZM1355.8,688.1c-4.5,0-8.2-3.7-8.2-8.2s3.7-8.2,8.2-8.2,8.2,3.7,8.2,8.2-3.7,8.2-8.2,8.2Z"/>
      <polygon class="st0" points="1284.8 491.6 1260.1 491.6 1247.8 497.8 1235.4 491.6 1210.8 491.6 1284.8 528.6 1284.8 491.6"/>
      <polygon class="st0" points="1284.8 491.6 1260.1 491.6 1247.8 497.8 1235.4 491.6 1210.8 491.6 1284.8 528.6 1284.8 491.6"/>
      <path class="st0" d="M1210.3,496.6v49.3l37,18.5,37-18.5v-12.3l-74-37ZM1216.7,520.8c0-4.5,3.7-8.2,8.2-8.2s8.2,3.7,8.2,8.2-3.7,8.2-8.2,8.2-8.2-3.7-8.2-8.2Z"/>
      <polygon class="st0" points="1265.3 641.3 1229.6 569.7 1271.3 569.7 1283.2 581.7 1283.2 629.4 1271.3 641.3 1265.3 641.3"/>
      <path class="st0" d="M1223.6,569.7l-12,12v47.7l12,11.9h35.8l-35.8-71.6h0ZM1226.6,614.5c-4.5,0-8.2-3.7-8.2-8.2s3.7-8.2,8.2-8.2,8.2,3.7,8.2,8.2-3.7,8.2-8.2,8.2Z"/>
      <path class="st0" d="M1200.8,337l-12-12h-41.7l35.8,71.6h5.9l12-11.9v-23.9h-12l12-11.9v-11.9h0ZM1178.9,350.9c-4.5,0-8.2-3.7-8.2-8.2s3.7-8.2,8.2-8.2,8.2,3.7,8.2,8.2-3.7,8.2-8.2,8.2Z"/>
      <polygon class="st0" points="1355.9 395 1320.1 323.9 1361.8 323.9 1361.8 395 1355.9 395"/>
      <path class="st0" d="M1314.1,323.9h-11.9l-12,11.9v11.9l12,11.9-12,11.9v11.9l12,11.9h47.7l-35.8-71.1h0ZM1306.4,350.5c-4.5,0-8.2-3.7-8.2-8.2s3.7-8.2,8.2-8.2,8.2,3.7,8.2,8.2-3.7,8.2-8.2,8.2Z"/>
      <polygon class="st0" points="1216.3 396.2 1252.1 325.1 1210.3 325.1 1210.3 396.2 1216.3 396.2"/>
      <path class="st0" d="M1139.8,325.1l-12,12v47.7l12,11.9h35.8l-35.8-71.6ZM1142.7,369.9c-4.5,0-8.2-3.7-8.2-8.2s3.7-8.2,8.2-8.2,8.2,3.7,8.2,8.2-3.7,8.2-8.2,8.2Z"/>
      <path class="st0" d="M1222.3,396.2h47.7l12-11.9v-11.9l-12-11.9,12-11.9v-11.9l-12-11.9h-11.9l-35.8,71.1h0ZM1257.6,343.5c0-4.5,3.7-8.2,8.2-8.2s8.2,3.7,8.2,8.2-3.7,8.2-8.2,8.2-8.2-3.7-8.2-8.2Z"/>
      <polygon class="st0" points="1347.5 478.1 1311.7 406.5 1353.5 406.5 1365.4 418.4 1365.4 466.2 1353.5 478.1 1347.5 478.1"/>
      <polygon class="st0" points="1210.1 406.4 1234.7 406.4 1247.1 412.5 1259.4 406.4 1284 406.4 1210.1 443.4 1210.1 406.4"/>
      <polygon class="st0" points="1210.1 406.4 1234.7 406.4 1247.1 412.5 1259.4 406.4 1284 406.4 1210.1 443.4 1210.1 406.4"/>
      <path class="st0" d="M1210.5,448.3v12.3l37,18.5,37-18.5v-49.3l-74,37ZM1269.9,443.7c-4.5,0-8.2-3.7-8.2-8.2s3.7-8.2,8.2-8.2,8.2,3.7,8.2,8.2-3.7,8.2-8.2,8.2Z"/>
      <path class="st0" d="M1305.8,406.5l-12,12v47.7l12,11.9h35.8l-35.8-71.6ZM1308.7,451.2c-4.5,0-8.2-3.7-8.2-8.2s3.7-8.2,8.2-8.2,8.2,3.7,8.2,8.2-3.7,8.2-8.2,8.2Z"/>
      <polygon class="st0" points="1136.9 480.3 1172.7 409.1 1131 409.1 1131 480.3 1136.9 480.3"/>
      <path class="st0" d="M1142.9,480.3h47.7l12-11.9v-11.9l-12-11.9,12-11.9v-11.9l-12-11.9h-11.9l-35.8,71.1h0ZM1178.2,427.5c0-4.5,3.7-8.2,8.2-8.2s8.2,3.7,8.2,8.2-3.7,8.2-8.2,8.2-8.2-3.7-8.2-8.2Z"/>
      <polygon class="st0" points="300.3 238.9 264.5 167.3 306.3 167.3 318.2 179.3 318.2 227 306.3 238.9 300.3 238.9"/>
      <polygon class="st0" points="93.8 239.6 81.9 227.6 81.9 179.9 93.8 168 129.6 239.6 93.8 239.6"/>
      <polygon class="st0" points="93.8 239.6 81.9 227.6 81.9 179.9 93.8 168 129.6 239.6 93.8 239.6"/>
      <path class="st0" d="M153.5,179.9l-12-12h-41.7l35.8,71.6h5.9l12-11.9v-23.9h-12l12-11.9v-11.9h0ZM131.7,193.8c-4.5,0-8.2-3.7-8.2-8.2s3.7-8.2,8.2-8.2,8.2,3.7,8.2,8.2-3.7,8.2-8.2,8.2h0Z"/>
      <polygon class="st0" points="164.3 169.4 188.9 169.4 201.3 175.6 213.6 169.4 238.3 169.4 164.3 206.4 164.3 169.4"/>
      <polygon class="st0" points="164.3 169.4 188.9 169.4 201.3 175.6 213.6 169.4 238.3 169.4 164.3 206.4 164.3 169.4"/>
      <path class="st0" d="M164.7,211.3v12.3l37,18.5,37-18.5v-49.3l-74,37h0ZM224.2,206.7c-4.5,0-8.2-3.7-8.2-8.2s3.7-8.2,8.2-8.2,8.2,3.7,8.2,8.2-3.7,8.2-8.2,8.2h0Z"/>
      <path class="st0" d="M258.6,167.3l-12,12v47.7l12,11.9h35.8l-35.8-71.6h0ZM261.5,212.1c-4.5,0-8.2-3.7-8.2-8.2s3.7-8.2,8.2-8.2,8.2,3.7,8.2,8.2-3.7,8.2-8.2,8.2Z"/>
      <polygon class="st0" points="167.1 381.1 238 343.9 238.8 385.7 227.1 397.8 179.3 398.7 167.2 387 167.1 381.1"/>
      <path class="st0" d="M73.4,422l-12-12H19.7l35.8,71.6h5.9l12-11.9v-23.9h-12l12-11.9v-11.9h0ZM51.5,435.9c-4.5,0-8.2-3.7-8.2-8.2s3.7-8.2,8.2-8.2,8.2,3.7,8.2,8.2-3.7,8.2-8.2,8.2Z"/>
      <polygon class="st0" points="228.5 480 192.7 408.9 234.4 408.9 234.4 480 228.5 480"/>
      <path class="st0" d="M79.8,369.7v12.3l37,18.5,37-18.5v-49.3l-74,37ZM139.3,365.1c-4.5,0-8.2-3.7-8.2-8.2s3.7-8.2,8.2-8.2,8.2,3.7,8.2,8.2-3.7,8.2-8.2,8.2Z"/>
      <path class="st0" d="M237.9,338l-12.2-11.7-47.7.9-11.7,12.2.7,35.8,70.9-37.2h0ZM193.2,341.8c0-4.5,3.5-8.2,8-8.3s8.2,3.5,8.3,8-3.5,8.2-8,8.3-8.2-3.5-8.3-8Z"/>
      <path class="st0" d="M186.7,408.9h-11.9l-12,11.9v11.9l12,11.9-12,11.9v11.9l12,11.9h47.7l-35.8-71.1h0ZM179,435.5c-4.5,0-8.2-3.7-8.2-8.2s3.7-8.2,8.2-8.2,8.2,3.7,8.2,8.2-3.7,8.2-8.2,8.2h0Z"/>
      <polygon class="st0" points="11.9 400.6 0 388.6 0 340.9 11.9 329 47.7 400.6 11.9 400.6"/>
      <polygon class="st0" points="11.9 400.6 0 388.6 0 340.9 11.9 329 47.7 400.6 11.9 400.6"/>
      <path class="st0" d="M71.6,340.9l-12-12H17.9l35.8,71.6h5.9l12-11.9v-23.9h-12l12-11.9v-11.9h0ZM49.8,354.8c-4.5,0-8.2-3.7-8.2-8.2s3.7-8.2,8.2-8.2,8.2,3.7,8.2,8.2-3.7,8.2-8.2,8.2Z"/>
      <polygon class="st0" points="88.9 481.2 124.7 410 83 410 83 481.2 88.9 481.2"/>
      <path class="st0" d="M12.4,410.1l-12,12v47.7l12,11.9h35.8s-35.8-71.6-35.8-71.6ZM15.4,454.9c-4.5,0-8.2-3.7-8.2-8.2s3.7-8.2,8.2-8.2,8.2,3.7,8.2,8.2-3.7,8.2-8.2,8.2Z"/>
      <path class="st0" d="M94.9,481.2h47.7l12-11.9v-11.9l-12-11.9,12-11.9v-11.9l-12-11.9h-11.9l-35.8,71.1h0ZM130.2,428.5c0-4.5,3.7-8.2,8.2-8.2s8.2,3.7,8.2,8.2-3.7,8.2-8.2,8.2-8.2-3.7-8.2-8.2Z"/>
      <polygon class="st0" points="178.7 318 166.7 306.1 166.7 258.3 178.7 246.4 214.5 318 178.7 318"/>
      <polygon class="st0" points="178.7 318 166.7 306.1 166.7 258.3 178.7 246.4 214.5 318 178.7 318"/>
      <path class="st0" d="M238.3,258.3l-12-12h-41.7l35.8,71.6h5.9l12-11.9v-23.9h-12l12-11.9v-11.9h0ZM216.5,272.2c-4.5,0-8.2-3.7-8.2-8.2s3.7-8.2,8.2-8.2,8.2,3.7,8.2,8.2-3.7,8.2-8.2,8.2Z"/>
      <polygon class="st0" points="310.5 319.1 274.7 247.9 316.5 247.9 316.5 319.1 310.5 319.1"/>
      <path class="st0" d="M268.7,247.9h-11.9l-12,11.9v11.9l12,11.9-12,11.9v11.9l12,11.9h47.7l-35.8-71.1h0ZM261,274.5c-4.5,0-8.2-3.7-8.2-8.2s3.7-8.2,8.2-8.2,8.2,3.7,8.2,8.2-3.7,8.2-8.2,8.2Z"/>
      <polygon class="st0" points="245.4 340.2 257.3 328.2 305 328 317 339.8 245.7 376 245.4 340.2"/>
      <polygon class="st0" points="245.4 340.2 257.3 328.2 305 328 317 339.8 245.7 376 245.4 340.2"/>
      <path class="st0" d="M305.5,399.5l11.9-12-.3-41.7-71.4,36.2v5.9s12,11.9,12,11.9h23.9c0-.1,0-12.1,0-12.1l12,11.9h11.9c0,0,0,0,0,0ZM291.4,377.8c0-4.5,3.6-8.2,8.1-8.2s8.2,3.6,8.2,8.1-3.6,8.2-8.1,8.2-8.2-3.6-8.2-8.1Z"/>
      <polygon class="st0" points="252.4 477.5 288.2 406.4 246.5 406.4 246.5 477.5 252.4 477.5"/>
      <path class="st0" d="M258.4,477.5h47.7l12-11.9v-11.9l-12-11.9,12-11.9v-11.9l-12-11.9h-11.9l-35.8,71.1h0ZM293.7,424.8c0-4.5,3.7-8.2,8.2-8.2s8.2,3.7,8.2,8.2-3.7,8.2-8.2,8.2-8.2-3.7-8.2-8.2Z"/>
      <polygon class="st0" points="225.4 162.2 189.6 91.1 231.4 91.1 231.4 162.2 225.4 162.2"/>
      <path class="st0" d="M183.6,91.1h-11.9l-12,11.9v11.8l12,11.8-12,11.9v11.9l12,11.9h47.7l-35.8-71.2h0ZM175.9,117.7c-4.5,0-8.2-3.7-8.2-8.2s3.7-8.2,8.2-8.2,8.2,3.7,8.2,8.2-3.7,8.2-8.2,8.2h0Z"/>
      <path class="st0" d="M76.6,135.7v12.3l37,18.5,37-18.5v-49.3l-74,37h0ZM136.1,131.1c-4.5,0-8.2-3.7-8.2-8.2s3.7-8.2,8.2-8.2,8.2,3.7,8.2,8.2-3.7,8.2-8.2,8.2Z"/>
      <path class="st0" d="M255.4,92.1l-12,12v47.7l12,11.9h35.8s-35.8-71.6-35.8-71.6ZM258.3,136.8c-4.5,0-8.2-3.7-8.2-8.2s3.7-8.2,8.2-8.2,8.2,3.7,8.2,8.2-3.7,8.2-8.2,8.2h0Z"/>
      <polygon class="st0" points="1269.9 795.1 1195.8 652.7 1282.2 652.7 1282.2 795.1 1269.9 795.1"/>
      <path class="st0" d="M1183.5,652.7h-24.7l-24.7,23.8v23.7l24.7,23.7-24.7,23.8v23.7l24.7,23.7h98.7l-74-142.4h0ZM1167.6,705.9c-9.3,0-16.9-7.3-16.9-16.4s7.6-16.4,16.9-16.4,16.9,7.3,16.9,16.4-7.6,16.4-16.9,16.4Z"/>
      <path class="st0" d="M1151.2,484.1l-21.1,26.9v107.3l21.1,26.8h63.2l-63.2-160.9ZM1156.4,584.7c-8,0-14.4-8.2-14.4-18.4s6.5-18.4,14.4-18.4,14.4,8.2,14.4,18.4-6.5,18.4-14.4,18.4Z"/>
      <polygon class="st0" points="434.6 479.2 363.8 337.5 446.5 337.5 470.1 361.1 470.1 455.6 446.5 479.2 434.6 479.2"/>
      <polygon class="st0" points="638.2 3.4 688.4 3.4 713.6 16 738.7 3.4 789 3.4 638.2 78.8 638.2 3.4"/>
      <polygon class="st0" points="638.2 3.4 688.4 3.4 713.6 16 738.7 3.4 789 3.4 638.2 78.8 638.2 3.4"/>
      <path class="st0" d="M639.1,88.8v25.1l75.4,37.7,75.4-37.7V13.4s-150.8,75.4-150.8,75.4ZM760.2,79.5c-9.2,0-16.7-7.5-16.7-16.7s7.5-16.7,16.7-16.7,16.7,7.5,16.7,16.7-7.5,16.7-16.7,16.7Z"/>
      <path class="st0" d="M352,337.5l-23.7,23.7v94.5l23.7,23.6h70.9l-70.9-141.8h0ZM357.8,426c-9,0-16.2-7.2-16.2-16.2s7.2-16.2,16.2-16.2,16.2,7.2,16.2,16.2-7.2,16.2-16.2,16.2Z"/>
      <polygon class="st0" points="833.3 724.4 808 699.1 808 598 833.3 572.6 909.2 724.4 833.3 724.4"/>
      <polygon class="st0" points="833.3 724.4 808 699.1 808 598 833.3 572.6 909.2 724.4 833.3 724.4"/>
      <path class="st0" d="M959.8,598l-25.3-25.3h-88.5l75.9,151.7h12.6l25.3-25.3v-50.6h-25.3l25.3-25.3v-25.3h0ZM913.5,627.4c-9.6,0-17.3-7.8-17.3-17.3s7.8-17.3,17.3-17.3,17.3,7.8,17.3,17.3-7.8,17.3-17.3,17.3Z"/>
    </g>
  </g>
</svg>